<svg xmlns="http://www.w3.org/2000/svg" xmlns:xlink="http://www.w3.org/1999/xlink" viewBox="0 0 124.12 91.16"><defs><style>.cls-1{fill:none;}.cls-2{stroke:#fff;stroke-miterlimit:10;stroke-width:2px;}.cls-3{fill:#fff;}.cls-4{clip-path:url(#clip-path);}</style><clipPath id="clip-path"><circle class="cls-1" cx="74.2" cy="45.58" r="44.58"/></clipPath></defs><title>Recurso 3</title><g id="Capa_2" data-name="Capa 2"><g id="Capa_1-2" data-name="Capa 1"><circle class="cls-2" cx="74.2" cy="45.58" r="44.58"/><path class="cls-3" d="M80.7,34.34H75.4v5h5.3Z"/><path class="cls-3" d="M73.32,34.34H68v5h5.3Z"/><path class="cls-3" d="M80.7,40.38H75.4v5h5.3Z"/><path class="cls-3" d="M73.32,40.38H68v5h5.3Z"/><g class="cls-4"><path class="cls-3" d="M117.72,42.94c1.62,2.57,2.93,4.6,4.2,6.66.63,1,1.1,2.12,1.79,3.08,1.05,1.46-.13,2-1,2.43-4.42,1.83-8.91,3.48-13.33,5.31-3.35,1.38-5.47.25-7.63-2.52C93.47,47.38,85,37.05,76.59,26.65c-1.59-2-2.21-1.95-3.9.12l-20,24.63c-1,1.26-1.93,2.56-3.73.83-.36-.34-1.43.12-2.16.07-6.61-.47-13.23-1-20.06-1.47a9.45,9.45,0,0,1,.9-1.75q7.23-9.36,14.51-18.66c.43-.54.87-1.26,1.46-1.46,2.86-.95,2.92-3.11,2.9-5.58,0-1.22.35-2.91,1.2-3.6a5,5,0,0,1,5.88-.25c.69.44,1,1.76,1.15,2.73.3,2.51.57,2.85,3.06,2.16,3.95-1.1,7.86-2.33,11.81-3.46,1.26-.37,2.45-.44,2.11,1.41,1-.68,2-1.84,3-1.82s1.75,1.29,2.45,2.15c4.55,5.55,9,11.15,13.57,16.73.72.89,1.47,1.75,2.41,2.87,1.26-3.41,2.29-6.33,3.42-9.19A12.14,12.14,0,0,1,98,30.94a11,11,0,0,1,1.73,2c1.18,2.18,2.2,4.44,3.36,6.64.18.34.74.47,1.38.85l2.7-5.42,1-.12c1.58,3.24,3.17,6.47,4.73,9.71a16.16,16.16,0,0,0,.76,1.91c.31.46,1,1.11,1.33,1a2.85,2.85,0,0,0,1.34-1.32C116.73,45.35,117.05,44.43,117.72,42.94Z"/><path class="cls-3" d="M0,63.22c3.7-1.8,7.28-3.92,11.12-5.35a60.34,60.34,0,0,1,31.29-3.39,92.42,92.42,0,0,1,17.12,4.84c9.8,3.68,19.73,6.31,30.26,6.26,3.1,0,6.2,0,9.31,0-5.67,2.59-11.7,1.51-17.59,1.85-8.11.47-15.93-1.3-23.41-4.06-11.25-4.16-22.72-7-34.71-5.54-6.3.76-12.43,3-18.62,4.59A44.7,44.7,0,0,0,.38,64.06C.26,63.78.13,63.5,0,63.22Z"/><path class="cls-3" d="M81.63,72c-4.44-.27-9,0-13.3-.92-7.17-1.49-14.16-3.81-21.28-5.6a79.64,79.64,0,0,0-27.21-2c-3.39.32-6.74,1-10.12,1.42-.88.12-1.77.13-2.65.19-.06-.27-.12-.55-.17-.83,4.14-1,8.24-2.4,12.44-3a67.85,67.85,0,0,1,27,1.09c4.86,1.22,9.51,3.29,14.35,4.63,4.6,1.27,9.31,2.16,14,3.09,2.31.45,4.68.63,7,.94C81.68,71.32,81.66,71.66,81.63,72Z"/></g></g></g></svg>