<svg xmlns="http://www.w3.org/2000/svg" viewBox="0 0 90.12 38.7"><defs><style>.cls-1{fill:#fff;}</style></defs><title>Recurso 1</title><g id="Capa_2" data-name="Capa 2"><g id="Capa_1-2" data-name="Capa 1"><path class="cls-1" d="M58.6,11.36H54.75V15H58.6Z"/><path class="cls-1" d="M53.23,11.36H49.39V15h3.84Z"/><path class="cls-1" d="M58.6,15.74H54.75v3.62H58.6Z"/><path class="cls-1" d="M53.23,15.74H49.39v3.62h3.84Z"/><path class="cls-1" d="M85.47,17.61c1.18,1.86,2.13,3.33,3,4.83.45.73.8,1.54,1.3,2.23.76,1.06-.09,1.49-.75,1.77-3.21,1.33-6.48,2.53-9.68,3.85-2.44,1-4,.19-5.55-1.83-6-7.63-12.13-15.14-18.23-22.69-1.15-1.43-1.61-1.41-2.83.09L38.23,23.75c-.74.91-1.4,1.86-2.7.6-.26-.25-1,.09-1.57,0-4.8-.34-9.61-.7-14.57-1.07a6.8,6.8,0,0,1,.66-1.27q5.23-6.79,10.53-13.55c.31-.39.64-.91,1.06-1,2.08-.69,2.12-2.27,2.11-4.06A3.67,3.67,0,0,1,34.61.79,3.63,3.63,0,0,1,38.89.61a2.94,2.94,0,0,1,.83,2c.22,1.82.42,2.07,2.22,1.57,2.87-.8,5.71-1.69,8.58-2.52.91-.26,1.78-.31,1.53,1,.74-.49,1.45-1.34,2.15-1.32S55.47,2.28,56,2.9c3.3,4,6.57,8.1,9.85,12.15.52.65,1.07,1.28,1.75,2.09.92-2.48,1.66-4.59,2.49-6.68a7.88,7.88,0,0,1,1.06-1.57,8.38,8.38,0,0,1,1.25,1.43c.86,1.58,1.6,3.23,2.44,4.82.13.25.54.34,1,.62.69-1.37,1.32-2.65,2-3.93l.69-.09c1.15,2.35,2.3,4.69,3.44,7a10.44,10.44,0,0,0,.55,1.38c.22.34.72.81,1,.74a2,2,0,0,0,1-1C84.75,19.35,85,18.69,85.47,17.61Z"/><path class="cls-1" d="M0,32.33C2.69,31,5.28,29.48,8.07,28.45A43.75,43.75,0,0,1,30.79,26,67.43,67.43,0,0,1,43.22,29.5c7.11,2.67,14.32,4.58,22,4.54H72c-4.11,1.88-8.49,1.1-12.77,1.34a41.81,41.81,0,0,1-17-2.94c-8.18-3-16.51-5.06-25.21-4-4.57.54-9,2.15-13.52,3.33A31.29,31.29,0,0,0,.28,32.94Z"/><path class="cls-1" d="M59.27,38.7c-3.22-.2-6.53,0-9.66-.67-5.2-1.09-10.28-2.77-15.45-4.07A57.9,57.9,0,0,0,14.4,32.53c-2.46.23-4.89.69-7.34,1-.64.09-1.29.1-1.93.14L5,33.1c3-.75,6-1.75,9-2.21a49.22,49.22,0,0,1,19.6.79c3.54.89,6.91,2.39,10.42,3.36,3.34.93,6.77,1.57,10.17,2.24,1.68.34,3.4.46,5.1.69Z"/><path class="cls-1" d="M15.08,23.76c-2.34.88-4.7,1.71-7,2.66-1.92.78-3.8,1.66-5.68,2.55-1.36.65-1.84.43-2-1A2.92,2.92,0,0,1,2.1,24.74a3.6,3.6,0,0,0,1.45-1.47C5,20.58,7.62,20,10,21.9a5.88,5.88,0,0,0,2.44.76c.87.19,1.77.25,2.65.36Z"/></g></g></svg>