<svg xmlns="http://www.w3.org/2000/svg" viewBox="0 0 91.16 91.16"><defs><style>.cls-1{fill:#fff;}.cls-2{fill:none;stroke:#fff;stroke-miterlimit:10;stroke-width:2px;}</style></defs><title>Recurso 2</title><g id="Capa_2" data-name="Capa 2"><g id="Capa_1-2" data-name="Capa 1"><path class="cls-1" d="M59.6,34.7H55.75v3.61H59.6Z"/><path class="cls-1" d="M54.24,34.7H50.39v3.61h3.85Z"/><path class="cls-1" d="M59.6,39.08H55.75v3.61H59.6Z"/><path class="cls-1" d="M54.24,39.08H50.39v3.61h3.85Z"/><path class="cls-1" d="M86.48,40.94c1.17,1.86,2.12,3.34,3,4.83.45.73.79,1.54,1.29,2.24.77,1.06-.09,1.49-.75,1.76-3.21,1.33-6.47,2.53-9.68,3.86-2.43,1-4,.18-5.54-1.83-6-7.64-12.14-15.14-18.24-22.69-1.15-1.43-1.6-1.42-2.83.08L39.24,47.08c-.75.92-1.41,1.86-2.71.61-.26-.26-1,.08-1.57,0-4.8-.34-9.6-.7-14.56-1.07a6.62,6.62,0,0,1,.65-1.26q5.25-6.8,10.54-13.55c.31-.4.63-.92,1.05-1.06,2.08-.69,2.13-2.26,2.11-4.05a3.65,3.65,0,0,1,.87-2.62,3.63,3.63,0,0,1,4.27-.18,2.92,2.92,0,0,1,.84,2c.21,1.83.41,2.07,2.21,1.57,2.87-.8,5.72-1.69,8.58-2.51.92-.27,1.78-.32,1.54,1,.73-.49,1.45-1.33,2.14-1.32s1.27.94,1.78,1.56c3.3,4,6.57,8.1,9.85,12.15.53.64,1.07,1.27,1.76,2.09.91-2.49,1.65-4.6,2.48-6.68a8.84,8.84,0,0,1,1.06-1.57,8.32,8.32,0,0,1,1.25,1.42c.86,1.59,1.6,3.23,2.44,4.83.13.24.54.34,1,.61l2-3.93.69-.09c1.14,2.35,2.3,4.7,3.43,7a12.18,12.18,0,0,0,.55,1.39c.23.33.73.81,1,.74a2,2,0,0,0,1-1C85.75,42.69,86,42,86.48,40.94Z"/><path class="cls-1" d="M1,55.66c2.69-1.31,5.29-2.84,8.07-3.88a43.86,43.86,0,0,1,22.72-2.46,66.73,66.73,0,0,1,12.44,3.51c7.11,2.67,14.32,4.58,22,4.55,2.25,0,4.5,0,6.75,0-4.11,1.87-8.49,1.09-12.76,1.34a41.87,41.87,0,0,1-17-2.95c-8.17-3-16.5-5.06-25.2-4-4.58.55-9,2.15-13.52,3.33-1.09.29-2.13.79-3.19,1.19Z"/><path class="cls-1" d="M60.27,62c-3.22-.2-6.52,0-9.65-.67-5.21-1.08-10.29-2.76-15.45-4.07a57.9,57.9,0,0,0-19.76-1.43c-2.46.23-4.9.7-7.35,1-.63.09-1.28.1-1.93.15L6,56.43c3-.75,6-1.74,9-2.21a49.4,49.4,0,0,1,19.6.79c3.53.89,6.9,2.39,10.41,3.37,3.35.92,6.77,1.56,10.18,2.24,1.67.33,3.39.46,5.09.68Z"/><path class="cls-1" d="M16.09,47.09c-2.35.88-4.71,1.72-7,2.66-1.93.78-3.81,1.67-5.68,2.55-1.37.65-1.84.44-2-1a2.94,2.94,0,0,1,1.69-3.18A3.6,3.6,0,0,0,4.56,46.6C6,43.91,8.62,43.37,11,45.24a6.08,6.08,0,0,0,2.44.76c.87.18,1.76.24,2.65.36Z"/><circle class="cls-2" cx="45.58" cy="45.58" r="44.58"/></g></g></svg>