<svg width="230" height="92" viewBox="0 0 230 92" fill="none" xmlns="http://www.w3.org/2000/svg">
<path d="M5.41641 85.757V67.5461H0.0501709V90.8934H13.8026V85.757H5.41641Z" fill="white"/>
<path d="M32.5857 67.5461H25.7431L17.7595 90.8928H23.6294L24.8035 87.2244H33.5246L34.6987 90.8928H40.5686L32.5857 67.5461ZM26.4135 82.2215L29.1644 73.6499L31.9146 82.2215H26.4135Z" fill="white"/>
<path d="M62.2368 85.757V81.6215H70.6224V76.5524H62.2368V72.6826H71.4609V67.5461H56.87V90.8934H71.629V85.757H62.2368Z" fill="white"/>
<path d="M85.8167 91.3598C90.9151 91.3598 94.5378 88.6925 94.5378 84.189C94.5378 79.254 90.5457 78.0192 86.9908 76.9521C83.3343 75.8513 82.7642 75.1173 82.7642 74.0502C82.7642 73.1153 83.6027 72.2815 85.2798 72.2815C87.4267 72.2815 88.533 73.3168 89.3384 74.9832L93.8667 72.3489C92.1557 68.9144 89.137 67.0796 85.2798 67.0796C81.2213 67.0796 77.3973 69.6815 77.3973 74.1837C77.3973 78.6528 80.8186 80.3211 84.3071 81.2878C87.8287 82.2557 89.1709 82.8226 89.1709 84.2564C89.1709 85.1576 88.5331 86.1573 85.9842 86.1573C83.3343 86.1573 81.8924 84.8563 81.0532 82.923L76.4245 85.5904C77.7328 89.0255 80.8864 91.3598 85.8167 91.3598Z" fill="white"/>
<path d="M115.099 67.5461H97.6569V72.6826H103.695V90.8934H109.061V72.6826H115.099V67.5461Z" fill="white"/>
<path d="M131.535 67.5461H124.693L116.709 90.8928H122.579L123.753 87.2244H132.475L133.649 90.8928H139.519L131.535 67.5461ZM125.363 82.2215L128.114 73.6499L130.864 82.2215H125.363Z" fill="white"/>
<path d="M157.564 67.5461V80.2208L148.508 67.5461H144.482V90.8934H149.849V78.2188L158.905 90.8934H162.931V67.5461H157.564Z" fill="white"/>
<path d="M181.11 91.3598C185.404 91.3598 189.16 89.2594 191.172 85.9564L186.544 83.2891C185.538 85.0896 183.49 86.1566 181.11 86.1566C176.95 86.1566 174.267 83.3895 174.267 79.2197C174.267 75.0499 176.95 72.2815 181.11 72.2815C183.49 72.2815 185.503 73.3492 186.544 75.1503L191.172 72.483C189.126 69.18 185.37 67.0796 181.11 67.0796C174.033 67.0796 168.901 72.3489 168.901 79.2197C168.901 86.0906 174.033 91.3598 181.11 91.3598Z" fill="white"/>
<path d="M202.006 67.5461H196.64V90.8928H202.006V67.5461Z" fill="white"/>
<path d="M221.797 67.5461H214.954L206.971 90.8928H212.841L214.015 87.2244H222.736L223.91 90.8928H229.781L221.797 67.5461ZM215.625 82.2215L218.376 73.6499L221.127 82.2215H215.625Z" fill="white"/>
<path d="M143.839 51.2466H151.023" stroke="white" stroke-width="1.176" stroke-miterlimit="10"/>
<path d="M95.5979 50.3318H92.0424V51.4468H94.2368V54.648C93.9162 54.8074 93.2914 54.9337 92.3786 54.9337C89.8642 54.9337 88.2145 53.3257 88.2145 50.6019C88.2145 47.9106 89.928 46.2857 92.5551 46.2857C93.6439 46.2857 94.3645 46.493 94.9411 46.7477L95.278 45.6171C94.8134 45.3942 93.8361 45.1234 92.5871 45.1234C88.967 45.1234 86.7569 47.4655 86.7406 50.6661C86.7406 52.3383 87.3179 53.7708 88.2464 54.6629C89.3032 55.6665 90.6487 56.0805 92.2828 56.0805C93.7403 56.0805 94.9737 55.7151 95.5979 55.4922V50.3318Z" fill="white"/>
<path d="M103.927 53.0231C103.671 51.9081 103.174 51.1442 102.342 50.8566V50.8099C103.479 50.4264 104.376 49.4876 104.376 48.07C104.376 47.2414 104.071 46.5086 103.527 46.0311C102.854 45.426 101.893 45.1552 100.403 45.1552C99.4421 45.1552 98.4335 45.2348 97.7285 45.378V55.969H99.1222V51.3185H100.435C101.7 51.3664 102.277 51.9236 102.598 53.4053C102.902 54.7426 103.142 55.6665 103.318 55.969H104.76C104.535 55.5557 104.279 54.5204 103.927 53.0231ZM100.548 50.2683H99.1222V46.3492C99.3463 46.2857 99.8265 46.2229 100.5 46.2229C101.973 46.2378 102.982 46.8442 102.982 48.2294C102.982 49.4552 102.037 50.2683 100.548 50.2683Z" fill="white"/>
<path d="M110.958 45.2349H109.276L105.608 55.9691H107.05L108.171 52.5929H111.999L113.152 55.9691H114.642L110.958 45.2349ZM108.459 51.5097L109.516 48.4043C109.724 47.7513 109.901 47.0982 110.061 46.4613H110.093C110.253 47.0826 110.413 47.7195 110.653 48.4205L111.711 51.5097H108.459Z" fill="white"/>
<path d="M117.54 55.969V51.382C117.54 49.599 117.508 48.3084 117.428 46.9556L117.476 46.9394C118.021 48.1017 118.741 49.3288 119.494 50.5229L122.922 55.969H124.332V45.2355H123.017V49.7273C123.017 51.3988 123.05 52.705 123.178 54.1387L123.146 54.1549C122.633 53.0555 122.008 51.9243 121.207 50.6661L117.748 45.2355H116.226V55.969H117.54Z" fill="white"/>
<path d="M128.977 52.3072C128.977 54.4089 128.239 54.9661 126.99 54.9661C126.525 54.9661 126.109 54.8715 125.82 54.7601L125.613 55.89C125.965 56.0345 126.59 56.1459 127.102 56.1459C128.96 56.1459 130.37 55.2687 130.37 52.4192V45.2355H128.977V52.3072Z" fill="white"/>
<path d="M137.225 45.2349H135.543L131.875 55.9691H133.317L134.438 52.5929H138.266L139.419 55.9691H140.909L137.225 45.2349ZM134.726 51.5097L135.783 48.4043C135.991 47.7513 136.168 47.0982 136.327 46.4613H136.36C136.52 47.0826 136.68 47.7195 136.92 48.4205L137.977 51.5097H134.726Z" fill="white"/>
<path d="M74.2151 51.8044H81.3998" stroke="white" stroke-width="1.176" stroke-miterlimit="10"/>
<path d="M122.849 11.9069H119.001V15.5234H122.849V11.9069Z" fill="white"/>
<path d="M117.487 11.9069H113.639V15.5234H117.487V11.9069Z" fill="white"/>
<path d="M122.849 16.2878H119.001V19.9044H122.849V16.2878Z" fill="white"/>
<path d="M117.487 16.2878H113.639V19.9044H117.487V16.2878Z" fill="white"/>
<path d="M149.725 18.15C150.902 20.0107 151.851 21.4879 152.775 22.9819C153.228 23.7146 153.573 24.5213 154.073 25.2184C154.836 26.279 153.979 26.7072 153.319 26.9813C150.111 28.3114 146.848 29.5106 143.64 30.8375C141.206 31.8443 139.672 31.0202 138.097 29.0092C132.116 21.3706 125.96 13.8681 119.864 6.31823C118.709 4.88769 118.257 4.90194 117.033 6.40569C112.18 12.365 107.331 18.3275 102.486 24.2926C101.742 25.2074 101.083 26.1507 99.7803 24.8964C99.5196 24.645 98.743 24.98 98.212 24.943C93.4087 24.6029 88.608 24.2407 83.647 23.8734C83.7897 23.5903 83.9676 23.0389 84.3012 22.6068C87.7975 18.078 91.3146 13.5655 94.8375 9.05685C95.1451 8.66293 95.4689 8.14074 95.8924 8.00015C97.9735 7.31015 98.0178 5.73772 97.9996 3.9489C97.9904 3.05741 98.2543 1.83161 98.8681 1.33468C100.105 0.33369 101.762 0.296114 103.139 1.15197C103.645 1.46685 103.896 2.43155 103.978 3.13257C104.192 4.95896 104.389 5.20062 106.194 4.70046C109.064 3.90485 111.906 3.01141 114.769 2.1873C115.687 1.92296 116.549 1.86983 116.306 3.21095C117.043 2.7205 117.758 1.87826 118.453 1.89381C119.061 1.90806 119.721 2.82677 120.231 3.44938C123.533 7.48378 126.799 11.548 130.082 15.5986C130.607 16.2445 131.152 16.873 131.836 17.6867C132.75 15.2046 133.494 13.0906 134.32 11.0089C134.548 10.4362 135.018 9.95871 135.379 9.43781C135.803 9.90882 136.34 10.3202 136.633 10.8619C137.491 12.4459 138.234 14.0922 139.074 15.6867C139.202 15.9303 139.611 16.0275 140.078 16.3022C140.76 14.9325 141.397 13.651 142.035 12.3701C142.266 12.341 142.497 12.3118 142.728 12.2827C143.873 14.6306 145.026 16.976 146.159 19.3298C146.375 19.7794 146.444 20.3126 146.714 20.7188C146.937 21.0531 147.437 21.5261 147.675 21.4581C148.065 21.3466 148.419 20.8899 148.65 20.4985C149.004 19.8979 149.241 19.23 149.725 18.15Z" fill="white"/>
<path d="M64.2534 32.8712C66.9385 31.5632 69.5375 30.029 72.3236 28.9904C79.6614 26.257 87.3068 25.2359 95.0441 26.5265C99.2714 27.2314 103.455 28.5311 107.476 30.0406C114.588 32.7112 121.798 34.6205 129.448 34.5882C131.697 34.5791 133.947 34.5869 136.204 34.5869C132.09 36.4651 127.709 35.6818 123.437 35.9293C117.543 36.2714 111.868 34.9866 106.44 32.9807C98.266 29.9603 89.9378 27.9233 81.2363 28.9619C76.661 29.5081 72.2096 31.1103 67.7164 32.2907C66.6257 32.5778 65.5924 33.0812 64.5323 33.4848C64.4391 33.2801 64.3466 33.076 64.2534 32.8712Z" fill="white"/>
<path d="M123.524 39.2406C120.299 39.0456 116.995 39.2218 113.867 38.5714C108.66 37.4881 103.581 35.8062 98.4165 34.5026C91.9264 32.8648 85.317 32.4436 78.6567 33.0727C76.1984 33.3053 73.7616 33.7686 71.3124 34.1055C70.6751 34.1929 70.0268 34.202 69.3831 34.2474C69.3427 34.0465 69.3023 33.845 69.2613 33.6442C72.2702 32.8907 75.2426 31.8968 78.2958 31.4316C84.857 30.4333 91.4481 30.5978 97.8979 32.224C101.429 33.1142 104.801 34.6141 108.314 35.5865C111.656 36.5117 115.079 37.1525 118.485 37.8282C120.162 38.1606 121.88 38.2895 123.58 38.5111C123.561 38.7541 123.543 38.9977 123.524 39.2406Z" fill="white"/>
<path d="M79.335 24.3042C76.994 25.1847 74.6327 26.0179 72.3171 26.9606C70.3943 27.7426 68.5133 28.6276 66.6362 29.5152C65.2698 30.1624 64.7968 29.948 64.6724 28.463C64.5544 27.0617 64.9864 25.9784 66.356 25.2845C66.9437 24.9865 67.4982 24.4021 67.805 23.8132C69.2078 21.1199 71.8701 20.5808 74.2177 22.4487C74.8399 22.9437 75.8212 23.0324 76.6584 23.208C77.5282 23.3907 78.4228 23.4529 79.307 23.5682C79.3161 23.8138 79.3252 24.0587 79.335 24.3042Z" fill="white"/>
</svg>
