<svg width="1149" height="384" viewBox="0 0 1149 384" fill="none" xmlns="http://www.w3.org/2000/svg">
<path opacity="0.3" d="M1153 219.762L1104.91 236.759L1113.49 268.262L1153 272.701L1153 279.76L1054.1 268.648L1056.44 287.864L1152.87 323.159L1152.87 337.937L1102.05 319.377L1092.17 361.727L1151.04 384.864L1153 380.277L1153 393.088L1123.76 381.585L1106.22 427.597C1122.18 434.425 1137.8 442.059 1153 450.471L1153 466.68C1117.13 445.767 1076.59 429.82 1043.58 418.969L1036.04 518.051L1153 498.444L1153 512.562L1115.7 518.835L1125.32 575.689L1132.86 576.211L1153 564.324L1153 572.428L1145.07 577.132L1153 577.654L1153 584.583L1126.49 582.621L1133.51 624.188L1152.87 622.75L1152.87 636.736L1149.26 637L927.207 637L885.029 624.582L883.974 637L870.145 637L871.504 620.657L816.4 604.449L800.797 637L775.386 637L779.504 628.371L674.23 598.308L658.375 626.671L689.919 637L667.62 637L656.038 633.208L655.404 637L648.441 637L649.407 630.986L587.546 610.725L576.903 637L569.38 637L580.917 608.635L470.189 572.296L476.319 637L462.325 637L453.164 539.487L373.498 609.287C373.951 614.057 375.285 627.408 376.139 637L369.361 637L366.872 611.509L328.016 614.117L330.918 637L307.649 637L305.144 616.739L275.643 621.444C276.533 627.142 277.372 632.485 278.063 637L270.943 637L268.749 622.489L238.989 627.326L240.251 637L233.278 637L232.1 628.503L191.293 635.039L191.483 637L177.667 637L172.45 582.361L111.369 590.99C114.365 605.53 116.648 621.022 118.363 637L104.491 637C104.205 634.324 103.901 631.666 103.578 629.026L48.6075 633.079L48.1321 637L34.106 637L34.4396 634.255L0.129648 636.737L0.129647 622.743L101.628 615.161C100.328 607.057 99.0353 599.214 97.3395 591.633L0.129645 584.584L0.129645 577.656L95.6489 584.584C90.7102 563.931 84.0826 545.894 75.1161 532.037C74.4662 531.122 73.6865 530.075 73.0418 529.031L0.129645 572.296L0.129645 564.192L31.1898 545.762L10.5257 510.86L0.129642 512.56L0.129642 498.444L37.6843 492.169C25.8519 482.693 13.2947 474.17 0.12964 466.68L0.12964 450.472C3.76899 452.434 7.40777 454.525 11.046 456.747L29.1102 404.33L0.129637 392.957L0.129636 380.149L15.3416 343.548L0.129635 337.927L0.129634 323.148L3.50912 324.325L16.6346 281.582L0.129632 279.76L0.129632 272.701L18.7125 274.923L29.1102 241.453C27.8103 236.877 24.5604 225.376 21.053 212.435L-1.82323e-05 219.894L-1.85522e-05 212.574C7.66648 209.829 14.5551 207.476 19.2345 205.776C16.244 195.057 13.2552 184.216 11.046 176.104L0.129628 181.469L0.129627 155.588L4.6794 153.233L0.129626 137.412L0.129624 87.6092C7.01651 111.662 13.5145 133.882 17.2863 147.085L62.3813 124.864L53.6724 72.9766L0.129623 79.6375L0.129623 65.6516L51.4701 59.1159L42.495 6.03796L0.12962 -1.79822L0.129619 -14.9999L55.3163 -14.9999L73.9441 -11.4704L74.9813 -14.9999L82.1102 -14.9999L80.8431 -10.6863L90.1017 -14.9999L123.032 -14.9999L103.967 -6.11017L209.493 13.3629C213.595 7.23223 218.96 2.0609 225.224 -1.8L217.322 -14.9999L225.509 -14.9999L231.457 -5.0652C237.829 -7.7906 244.677 -9.21272 251.601 -9.24849C252.638 -9.24849 253.551 -9.11799 254.59 -9.11799L255.686 -15L279.175 -15L276.813 -2.31978C283.19 1.39379 288.681 6.46562 292.901 12.54C297.122 18.6144 299.97 25.5441 301.246 32.8429L361.677 52.316L375.102 -15L382.189 -15L375.966 15.9796C380.905 16.7637 390.392 18.3338 400.658 20.0307L405.268 -15L412.25 -15L407.422 21.0774C417.17 22.6422 426.783 24.207 433.023 25.2606L440.584 -15L454.631 -15L446.666 27.8738L519.184 43.8226L464.545 -15L474.132 -15L529.585 44.8676L558.695 20.947L537.478 -15L553.471 -15L569.48 12.0589L593.786 -8.07138L589.71 -15L597.835 -15L599.371 -12.392L602.551 -15L613.408 -15L573.121 18.0694L614.317 87.87L632.705 -15L656.169 -15L651.35 12.0589L728.675 25.1302L738.178 -15L745.286 -15L735.432 26.3055L781.307 34.0182C784.543 16.7637 787.781 0.0498923 790.642 -15L804.694 -15L798.459 17.687L870.845 28.145L877.343 -3.87949L831.327 -15L861.322 -15L878.655 -10.815L879.495 -15L893.649 -15L884.633 29.9654L927.13 36.1168L937.156 -15L944.082 -15L933.883 37.16L985.867 44.612L996.024 -15L1010.1 -15L999.647 46.5679L1050.72 53.8878L1060.08 -15L1073.93 -15L1069.82 14.9346L1119.6 22.517L1110.37 -9.50756L1081.09 -15L1152.87 -15L1152.87 -1.53569L1125.58 -6.63353C1130.52 10.0994 1138.58 38.0711 1146.76 66.4357L1152.87 65.6515L1152.87 79.6374L1150.66 79.8981C1151.44 82.5062 1152.09 84.9959 1152.87 87.6091L1152.87 137.413L1136.5 80.1607L1100.62 75.0629L1129.08 167.348L1153 155.582L1153 181.469L1097.38 208.919L1103.1 230.095C1111.67 227.088 1134.67 218.985 1153 212.449L1153 219.762ZM1132.21 65.6515L1121.94 29.9654L1069.18 21.9919L1064.49 55.9776L1132.21 65.6515ZM1077.88 628.373L1126.62 624.713L1108.81 520.012L1066.97 527.071L1077.88 628.373ZM1098.16 182.639L1122.72 170.484L1111.8 135.582L1086.59 142.118L1098.16 182.639ZM1099.71 424.851L1117.13 378.971L1090.61 368.513L1079.31 416.747C1086.07 419.23 1092.83 421.976 1099.72 424.851L1099.71 424.851ZM1084.77 135.452L1109.85 128.916L1092.95 74.0162L1066.18 70.2243L1084.77 135.452ZM1053.19 261.591L1106.08 267.472L1091.01 212.051L1049.42 232.567L1053.19 261.591ZM1079.83 354.261L1089.06 314.524L1054.48 301.976L1044.22 327.072L1079.83 354.261ZM1048.51 207.078L1085.55 188.779L1051.24 67.9987L1026.02 64.3388L1008.49 186.685L1048.51 207.078ZM1066.31 411.907L1078.01 361.581L1039.67 332.3L991.846 360.536L991.067 389.292C1016.52 395.528 1041.64 403.078 1066.32 411.912L1066.31 411.907ZM1026.16 632.163L1063.98 629.419L1053.19 529.293L1017.97 535.175L1026.16 632.163ZM1049.29 285.125L1042.92 235.716L1009.65 252.184C1011.38 257.367 1012.25 262.797 1012.25 268.262C1012.27 269.353 1012.23 270.444 1012.12 271.529L1049.29 285.125ZM1038.5 322.64L1047.99 299.504L1009.13 285.247C1007.83 289.081 1006.04 292.729 1003.81 296.098L1038.5 322.64ZM997.307 232.449L1040.71 211.011L977.293 178.595L970.534 218.333C980.691 220.148 990.041 225.076 997.307 232.442L997.307 232.449ZM1028.88 519.228L1036.68 416.747C1017.32 410.605 1001.2 406.161 990.676 403.546L987.169 526.156L1028.88 519.228ZM1033.82 327.601L999.644 301.458C997.762 303.7 995.674 305.757 993.405 307.603L992.106 352.305L1033.82 327.601ZM1019.4 632.563L1011.21 536.227L986.908 540.28L984.178 635.176L1019.4 632.563ZM1011.86 114.545L1019.14 63.4365L997.302 60.3069L989.125 109.44L1011.86 114.545ZM1001.98 183.432L1010.82 121.475L987.817 116.245L978.591 171.535L1001.98 183.432ZM961.695 295.846C967.119 295.846 972.42 294.228 976.93 291.198C981.439 288.167 984.954 283.86 987.029 278.82C989.105 273.78 989.648 268.235 988.59 262.885C987.532 257.535 984.92 252.62 981.085 248.763C977.25 244.906 972.364 242.279 967.045 241.215C961.726 240.151 956.212 240.697 951.202 242.784C946.191 244.872 941.908 248.407 938.895 252.942C935.882 257.478 934.274 262.81 934.274 268.265C934.278 275.579 937.169 282.591 942.312 287.761C947.454 292.931 954.428 295.836 961.699 295.837L961.695 295.846ZM970.403 136.636L983.658 58.3405L956.757 54.4198L942.33 131.67L970.403 136.636ZM969.103 352.446L970.012 318.195C967.275 318.741 964.483 318.96 961.695 318.848C958.997 318.83 956.304 318.612 953.638 318.195L939.733 347.213L969.103 352.446ZM937.524 411.267L967.284 415.057L968.84 359.636L936.611 353.886L915.556 397.805L937.524 411.267ZM938.303 223.432C943.98 220.355 950.209 218.444 956.627 217.811L968.064 150.363L880.341 134.807L938.303 223.432ZM964.167 525.899L967.156 421.983L939.085 418.453L917.906 517.006L964.167 525.899ZM961.178 632.561L963.771 540.017L946.096 536.618L936.869 625.372L961.178 632.561ZM935.446 130.49L950.001 53.3696L929.603 50.4939L892.438 122.779L935.446 130.49ZM934.927 576.355L939.216 535.311L857.08 519.489L840.706 553.605L934.927 576.355ZM930.118 623.28L934.277 583.291L837.719 560.024L822.507 591.788L930.118 623.28ZM924.402 453.745L932.459 416.363L912.445 404.206L896.071 438.458L924.402 453.745ZM924.661 233.885C926.996 231.379 929.563 229.103 932.328 227.087L870.989 133.103L864.23 131.926L848.634 209.309L924.661 233.885ZM900.749 375.447L932.328 309.435C926.28 305.051 921.263 299.384 917.634 292.834L874.617 303.685L900.749 375.447ZM911.015 515.702L922.841 460.802L892.951 444.723L863.32 506.548L911.015 515.702ZM885.283 121.471L922.321 49.4472L881.903 43.6974L866.959 118.204L885.283 121.471ZM814.706 294.923L911.266 270.348L911.266 268.262C911.249 263.573 911.905 258.906 913.216 254.406L828.091 227.088L797.551 239.506L814.706 294.923ZM878.524 421.579L896.59 384.064L879.174 336.221L846.945 345.252L878.524 421.579ZM795.739 352.432L876.574 329.818L867.737 305.375L785.734 326.163L795.739 352.432ZM847.08 487.198L874.501 429.946L863.454 403.149L823.816 425.895L847.08 487.198ZM853.319 115.842L868.263 41.7258L795.876 31.2677L782.099 103.162L853.319 115.842ZM821.218 419.357L860.726 396.744L840.193 347.202L798.217 358.966L821.218 419.357ZM835.382 204.98L850.594 129.426L779.506 116.746L766.899 182.886L835.382 204.98ZM823.297 536.729L838.762 504.442L813.161 436.994L759.746 515.292L823.297 536.729ZM729.206 259.748L817.838 223.672L690.092 182.497L729.206 259.748ZM785.604 615.562L817.315 549.289L752.726 527.593L721.016 597.139L785.604 615.562ZM727.123 464.849L780.145 473.084L810.167 429.165L800.03 402.499L693.333 381.461C686.835 400.152 679.297 421.852 672.669 440.805L727.123 464.849ZM706.206 322.371L808.094 296.489L791.2 241.982L694.64 281.326L706.206 322.371ZM797.048 394.786L772.226 329.43L705.429 346.422C702.958 353.481 699.449 363.414 695.551 374.786L797.048 394.786ZM769.756 93.8841C773.004 76.6295 776.514 58.5891 779.893 40.9452L650.064 18.984L647.989 30.2262L769.756 93.8841ZM752.988 512.951L775.862 479.359L729.206 472.169L725.437 503.801L752.988 512.951ZM753.637 178.587C756.627 163.031 762.085 134.012 768.453 100.943L759.217 96.1009L700.346 161.457L753.637 178.587ZM724.917 123.819L752.854 92.9712L646.807 37.5495L640.439 72.8444L724.917 123.819ZM714.26 595.302L746.096 525.378L722.314 517.404L692.554 589.037L714.26 595.302ZM690.996 275.316L722.836 262.375L681.637 180.948L663.053 254.01L690.996 275.316ZM718.94 501.32L722.57 470.21L670.457 447.334C665.388 461.843 661.099 474.132 658.629 481.188L718.94 501.32ZM693.074 159.11L720.234 129.047L639.139 80.159L628.743 138.456L693.074 159.11ZM693.463 550.859L709.194 512.957L654.351 494.527L642.785 532.172L693.463 550.859ZM699.442 324.202L687.356 281.46L661.105 261.465L641.479 338.841L699.442 324.202ZM673.969 416.095L697.492 348.646L634.722 364.593L623.286 403.017L673.969 416.095ZM679.169 585.108L690.735 557.134L588.848 519.49L577.931 556.222L679.169 585.108ZM652.007 479.1L671.63 422.622L621.206 409.681L605.351 463.406L652.007 479.1ZM662.405 200.157L668.641 175.713L630.304 163.295L621.726 189.045L662.405 200.157ZM469.413 564.715L651.611 624.45L667.342 596.348L467.077 539.096L469.413 564.715ZM651.486 243.684L660.844 206.824L619.647 195.582L609.251 226.822L651.486 243.684ZM566.104 287.472L580.797 313.093L637.718 296.886L647.727 257.279L560.522 222.248L566.104 287.472ZM636.15 529.55C638.619 521.707 644.598 502.492 647.716 492.169L601.451 476.615L590.794 512.821L636.15 529.55ZM601.451 349.035L626.273 342.76L635.889 304.857L584.426 319.368L601.451 349.035ZM602.749 224.334L623.666 161.2L560.896 140.939L538.297 198.456L602.749 224.334ZM600.931 429.685L618.995 368.381L558.953 383.681L600.931 429.685ZM606.647 131.267L610.677 108.784L585.074 65.3872C575.198 63.3008 554.664 58.7195 531.92 53.7539L520.224 103.426L606.647 131.267ZM499.299 498.832L575.197 516.61L598.588 437.528L551.412 385.505L496.442 399.491L499.299 498.832ZM543.096 363.805L594.436 350.734L561.807 293.745C552.709 300.544 526.458 320.411 518.269 326.554L543.096 363.805ZM580.009 57.1547L562.204 26.961L536.992 47.745L580.009 57.1547ZM564.674 552.428L573.252 523.279L524.646 511.908L516.198 538.574L564.674 552.428ZM514.25 320.804L559.086 286.949L553.367 219.501L550.119 218.193L491.767 287.21L514.25 320.804ZM531.794 195.841L554.277 138.719L513.6 125.648L493.721 180.548L531.794 195.841ZM520.746 242.244L543.36 215.446L487.475 193.096L475.257 209.961L520.746 242.244ZM517.108 370.473L535.95 365.638L512.686 330.864L497.474 343.019L517.108 370.473ZM513.728 101.327L525.165 52.3091C493.455 45.2501 459.535 37.7998 445.501 34.7937L437.703 76.8833L513.728 101.327ZM465.644 524.194L509.441 536.742L517.887 510.336L463.176 497.528L465.644 524.194ZM469.152 303.419L516.197 247.608L471.102 215.584L438.612 260.812L469.152 303.419ZM493.325 337.403C498.264 333.483 505.151 327.992 508.789 325.116L487.086 292.829L473.181 309.3L493.325 337.403ZM487.346 178.065L506.971 123.556L480.848 115.191C475.39 126.171 465.513 145.256 454.337 164.863L487.346 178.065ZM414.829 396.224L502.552 374.004L458.498 312.438L402.094 329.43L414.829 396.224ZM462.524 490.208L492.416 497.267L489.557 401.322L454.984 410.08L462.524 490.208ZM434.323 254.792L480.72 190.35L447.321 177.017C437.703 193.36 427.441 209.041 418.209 219.76C416.575 221.6 414.84 223.345 413.011 224.988L434.323 254.792ZM404.433 214.141C405.581 213.073 406.666 211.938 407.681 210.742C428.346 186.558 455.897 134.012 467.592 110.876L419.768 95.4523L356.739 158.197L404.433 214.141ZM360.377 534.391L451.739 523.54L448.628 491.124L355.836 503.411L360.377 534.391ZM408.981 312.961L450.049 300.544L427.696 269.173L394.302 282.114L408.981 312.961ZM447.969 484.197L441.341 413.48L427.827 416.88L402.354 490.21L447.969 484.197ZM327.231 607.197L368.559 604.452L443.936 538.44L320.603 553.219L327.231 607.197ZM424.311 72.5784L431.849 32.1875L374.668 22.776L368.305 54.5467L424.311 72.5784ZM333.475 298.189L423.407 263.289L401.972 233.355C374.55 251.525 329.065 266.295 301.255 274.269L333.475 298.189ZM354.789 496.483L394.686 491.253L419.77 418.971L346.082 437.662L354.789 496.483ZM304.885 424.198L408.202 398.055L395.339 331.516L297.22 361.319L304.885 424.198ZM347.641 147.607L404.954 90.617L328.406 66.0428L309.564 103.035L347.641 147.607ZM369.475 324.986L402.224 315.051L387.671 284.595L339.976 303.155L369.475 324.986ZM347.381 244.466C364.407 238.061 381.171 230.609 393.517 222.505L374.803 200.676L338.024 220.023L347.381 244.466ZM335.297 213.487L370.125 195.187L346.992 168.255L326.977 191.919L335.297 213.487ZM295.657 347.338L361.285 327.47L292.667 276.621C290.715 277.143 288.896 277.665 287.208 278.059L295.657 347.338ZM318.919 539.356L353.492 535.173L339.457 439.361L307.746 447.464L318.919 539.356ZM274.474 173.889L321.779 187.353L342.443 162.902L276.552 85.6497C272.72 87.8803 268.613 89.5943 264.336 90.7475L274.474 173.889ZM285.52 264.08C298.255 260.681 319.31 254.539 340.754 246.826L320.48 194.019L275.385 181.209L285.52 264.08ZM304.758 97.4136L321.784 63.9512L299.69 56.7617C297.247 64.4199 293.064 71.4004 287.472 77.1494L304.758 97.4136ZM274.602 614.517L304.24 609.812L297.872 557.131L266.941 564.451C268.495 574.78 271.742 595.825 274.602 614.517ZM296.176 543.406L284.609 448.638L270.834 452.298L266.284 550.465L296.176 543.406ZM281.88 426.418L274.862 368.381L218.98 403.412L281.88 426.418ZM251.47 69.1776C256.893 69.1779 262.195 67.5606 266.705 64.5301C271.215 61.4997 274.73 57.1922 276.805 52.1525C278.881 47.1127 279.424 41.5671 278.366 36.2168C277.308 30.8666 274.696 25.9521 270.861 22.0948C267.026 18.2375 262.14 15.6106 256.821 14.5465C251.501 13.4823 245.988 14.0287 240.977 16.1164C235.966 18.2042 231.684 21.7395 228.671 26.2753C225.658 30.8112 224.05 36.1438 224.05 41.5989C224.052 48.913 226.941 55.9271 232.083 61.099C237.224 66.271 244.198 69.1775 251.47 69.1793L251.47 69.1776ZM213.267 398.829L273.959 360.792L271.23 338.438L203.912 338.308L213.267 398.829ZM271.88 437.519L175.709 402.224L152.443 468.64L271.88 437.519ZM202.873 331.249L270.45 331.381L261.482 257.265L192.605 265.108L202.873 331.249ZM238.09 620.389L267.721 615.684L260.182 566.012L231.72 572.678L238.09 620.389ZM180.648 522.352L261.354 507.975L263.823 453.99L176.354 476.733L180.648 522.352ZM185.068 569.411L259.273 552.024L260.962 515.165L181.298 529.413L185.068 569.411ZM231.853 253.737L260.575 250.468L255.506 208.772L226.915 213.216L231.853 253.737ZM183.508 205.894L253.817 194.916L248.099 147.597L176.231 158.709L183.508 205.894ZM175.192 151.778L247.19 140.536L241.21 91.1265C230.86 88.9431 221.451 83.5485 214.309 75.7028L166.997 98.9836L175.192 151.778ZM190.651 628.11L231.198 621.576L224.959 574.389L186.362 583.409L190.651 628.11ZM191.688 258.322L224.958 254.532L220.15 214.273L185.711 219.631L191.688 258.322ZM68.8757 121.597L202.994 55.3256C202.969 54.9653 202.881 54.6121 202.734 54.2824L60.5593 72.0551L68.8757 121.597ZM58.2204 58.3318L201.179 40.5539C201.308 38.8552 201.438 37.287 201.568 35.5865L49.776 7.48272L58.2204 58.3318ZM198.966 396.096L189.738 336.621L101.367 311.784L85.3825 354.397L198.966 396.096ZM188.568 329.039L182.98 292.831L114.88 275.966L103.834 305.247L188.568 329.039ZM181.941 285.511L173.493 231.134L129.829 236.759L117.483 269.568L181.941 285.511ZM141.266 579.878L171.806 575.566L162.71 480.405L123.597 490.731L141.266 579.878ZM143.734 220.808L171.285 217.279L153.999 105.517L124.757 119.896L143.734 220.808ZM157.249 434.004L169.206 399.886L129.57 385.377L114.494 421.977L157.249 434.004ZM144.255 470.733L154.912 440.531L111.765 428.376L88.112 485.371L144.255 470.733ZM41.4561 233.88L136.847 221.723L128.265 175.973C112.8 181.332 53.7986 201.202 34.303 207.868L41.4561 233.88ZM86.8121 524.456C96.9488 540.278 104.487 560.794 110.076 584.191L134.509 580.792L116.963 492.43L71.2198 504.326C76.9698 510.584 82.1857 517.318 86.8121 524.456ZM32.4897 201.064L127.101 169.04L118.394 123.028L23.7808 169.699L32.4897 201.064ZM107.735 420.014L123.079 383.024L59.1383 359.625L44.4449 402.238L107.735 420.014ZM97.3377 303.025L122.031 237.668L79.9252 243.027L63.8108 287.601L97.3377 303.025ZM59.9111 492.953L79.9252 487.725L105.136 426.55L42.2357 408.774L23.1326 464.328C36.1915 472.783 48.497 482.36 59.9111 492.953ZM78.6235 352.045L94.7396 309.435L58.0925 292.704L30.2822 284.339L16.5033 329.169L78.6235 352.045ZM57.3112 285.12L72.1273 243.945L41.5858 247.866L32.3583 277.668L57.3112 285.12ZM37.1657 542.232L69.0054 523.281C63.6075 516.395 57.7025 509.928 51.3405 503.933L17.8049 509.556L37.1657 542.232ZM31.3177 397.793L46.1338 354.787L21.8309 345.899L4.67768 387.336L31.3177 397.793Z" fill="#424242"/>
</svg>
